<svg xmlns="http://www.w3.org/2000/svg" viewBox="0 0 272.17 282.13"><defs><style>.cls-1,.cls-2{fill:#fff;stroke:#fff;stroke-miterlimit:10;}.cls-2{stroke-width:5px;}</style></defs><g id="Layer_2" data-name="Layer 2"><g id="Layer_1-2" data-name="Layer 1"><path class="cls-1" d="M71,34.31V107l-18.63-.28-.51-67.92H46V265.49H26.89V15H54.72C63.7,15,71,23.62,71,34.31Z"/><path class="cls-1" d="M97.6,117.07V246.13c0,10.69-7.28,19.36-16.27,19.36h-12c-9,0-16.27-8.67-16.27-19.36V117.07l19.14.56v124h6.28v-124Z"/><path class="cls-1" d="M139.79,85.52V108.3H75.32V18.7l19.14-1.11V85.52Z"/><path class="cls-1" d="M120.49,139.85v61.27h5.85v22.77h-5.85v42.65H101.35V117.07h38.44v22.78Z"/><path class="cls-1" d="M189.15,34.5V265.68H170V152.32h-6.28V265.68H144.59V34.5c0-10.7,7.28-19.36,16.27-19.36h12C181.87,15.14,189.15,23.8,189.15,34.5ZM170,39h-6.28v90.59H170Z"/><path class="cls-1" d="M240.5,33.44v29.5H221.36v-25h-6.28v205h6.28v-70l19.14.56v73.9c0,10.69-7.29,19.36-16.27,19.36h-12c-9,0-16.27-8.67-16.27-19.36V33.44c0-10.69,7.29-19.35,16.27-19.35h12C233.21,14.09,240.5,22.75,240.5,33.44Z"/><path class="cls-1" d="M240.5,80.5v37.81c0,1.74-1.74,3.16-3.88,3.16H230.7a2.68,2.68,0,0,0-2.91,2.37v28.28h3.14V123.8h9.57v29.84c0,3.66-3.65,6.62-8.14,6.62h-6c-4.49,0-8.14-3-8.14-6.62V80.5c0-3.65,3.65-6.62,8.14-6.62h6C236.85,73.88,240.5,76.85,240.5,80.5ZM230.93,82h-3.14v31.65h3.14Z"/><rect class="cls-2" x="2.5" y="2.5" width="267.17" height="277.13"/><path class="cls-1" d="M103,59.31v23a1.86,1.86,0,0,1-1.82,2H98V57.31h3.16A1.89,1.89,0,0,1,103,59.31Zm-2.14.48h-.7v22h.7Z"/><path class="cls-1" d="M108.74,59.29V71.16a.94.94,0,0,1-.87,1h-1.32a.7.7,0,0,0-.65.74v8.87h.7V72.88h2.14v9.36a2,2,0,0,1-1.82,2.08h-1.35a2,2,0,0,1-1.82-2.08V59.29a2,2,0,0,1,1.82-2.08h1.35A2,2,0,0,1,108.74,59.29Zm-2.14.48h-.7V69.7h.7Z"/><path class="cls-1" d="M114.49,59.3v9.63h-2.15V59.78h-.7v9.15a.7.7,0,0,0,.65.74h1.44a1,1,0,0,1,.76,1V82.24a2,2,0,0,1-1.83,2.08h-1.34a2,2,0,0,1-1.82-2.08V72.85h2.14v8.91h.7v-8.9a.71.71,0,0,0-.65-.75h-1.32a.93.93,0,0,1-.87-1V59.3a2,2,0,0,1,1.82-2.09h1.34A2,2,0,0,1,114.49,59.3Z"/><path class="cls-1" d="M115.28,84.21V57.33h2.14V84.21Z"/><path class="cls-1" d="M122.14,69.55h.2a.93.93,0,0,1,.87,1v11.7a2,2,0,0,1-1.82,2.08h-1.34a2,2,0,0,1-1.83-2.08V59.18h0a1.94,1.94,0,0,1,1.82-2h1.34a2,2,0,0,1,1.82,2h0v9.64h-2.14v-9h-.7v22h.7V72h-.35V69.55Z"/><path class="cls-1" d="M128.94,59.4V84.21H126.8V59.88h-.65V84.21H124V57.33h3.11A2,2,0,0,1,128.94,59.4Z"/><path class="cls-1" d="M134.67,59.29V71.16a.94.94,0,0,1-.87,1h-1.32a.71.71,0,0,0-.66.74v8.87h.71V72.88h2.14v9.36a2,2,0,0,1-1.82,2.08H131.5a2,2,0,0,1-1.82-2.08V59.29a2,2,0,0,1,1.82-2.08h1.35A2,2,0,0,1,134.67,59.29Zm-2.14.48h-.71V69.7h.71Z"/><path class="cls-1" d="M140.45,59.4V70.15a2.36,2.36,0,0,1-.14.8,2.28,2.28,0,0,1,.14.8V84.21h-2.14v-12h-.71v12h-2.14V57.33h3.17A2,2,0,0,1,140.45,59.4Zm-2.14.48h-.71v9.79h.71Z"/></g></g></svg>