<svg id="Layer_1" data-name="Layer 1" xmlns="http://www.w3.org/2000/svg" viewBox="0 0 350.33 282.13"><defs><style>.cls-1{fill:#fff;}.cls-2{fill:none;stroke:#fff;stroke-miterlimit:10;stroke-width:5px;}</style></defs><text x="-143.92" y="-2.93"/><path class="cls-1" d="M214.9,37.24v72.68l-18.62-.28-.52-67.93H190V268.42H170.81V17.88h27.82C207.62,17.88,214.9,26.55,214.9,37.24Z" transform="translate(-143.92 -2.93)"/><path class="cls-1" d="M241.52,120V249.06c0,10.69-7.29,19.36-16.27,19.36h-12c-9,0-16.27-8.66-16.27-19.36V120l19.14.55v124h6.28v-124Z" transform="translate(-143.92 -2.93)"/><path class="cls-1" d="M283.71,88.46v22.77H219.23V21.64l19.15-1.12V88.46Z" transform="translate(-143.92 -2.93)"/><path class="cls-1" d="M264.41,142.78v61.27h5.85v22.78h-5.85v42.64H245.27V120h38.44v22.77Z" transform="translate(-143.92 -2.93)"/><path class="cls-1" d="M333.07,37.43V268.61H313.93V155.25h-6.29V268.61H288.5V37.43c0-10.69,7.29-19.36,16.27-19.36h12C325.78,18.07,333.07,26.74,333.07,37.43ZM313.93,41.9h-6.28v90.58h6.28Z" transform="translate(-143.92 -2.93)"/><path class="cls-1" d="M384.41,36.38v29.5H365.27v-25H359v205h6.28v-70l19.14.56v73.9c0,10.68-7.28,19.35-16.27,19.35h-12c-9,0-16.27-8.67-16.27-19.35V36.38c0-10.69,7.28-19.36,16.27-19.36h12C377.13,17,384.41,25.69,384.41,36.38Z" transform="translate(-143.92 -2.93)"/><path class="cls-1" d="M384.41,83.44v37.81c0,1.74-1.73,3.15-3.87,3.15h-5.92a2.69,2.69,0,0,0-2.92,2.37v28.28h3.14V126.74h9.57v29.84c0,3.65-3.64,6.62-8.13,6.62h-6c-4.5,0-8.14-3-8.14-6.62V83.44c0-3.66,3.64-6.62,8.14-6.62h6C380.77,76.82,384.41,79.78,384.41,83.44ZM374.84,85H371.7v31.65h3.14Z" transform="translate(-143.92 -2.93)"/><rect class="cls-2" x="2.5" y="2.5" width="267.17" height="277.13"/><path class="cls-1" d="M246.91,62.24v23a1.86,1.86,0,0,1-1.82,2h-3.17V60.24h3.17A1.9,1.9,0,0,1,246.91,62.24Zm-2.14.48h-.71v22h.71Z" transform="translate(-143.92 -2.93)"/><path class="cls-1" d="M252.66,62.22V74.09a.93.93,0,0,1-.87,1h-1.33a.7.7,0,0,0-.65.74V84.7h.71V75.81h2.14v9.37a2,2,0,0,1-1.82,2.07h-1.35a2,2,0,0,1-1.82-2.07v-23a2,2,0,0,1,1.82-2.07h1.35A2,2,0,0,1,252.66,62.22Zm-2.14.48h-.71v9.94h.71Z" transform="translate(-143.92 -2.93)"/><path class="cls-1" d="M258.4,62.23v9.64h-2.14V62.71h-.7v9.16a.69.69,0,0,0,.64.73h1.45v0a.94.94,0,0,1,.75,1V85.17a2,2,0,0,1-1.82,2.08h-1.34a2,2,0,0,1-1.82-2.08V75.79h2.14v8.9h.7v-8.9a.7.7,0,0,0-.65-.74h-1.32a.94.94,0,0,1-.87-1V62.23a2,2,0,0,1,1.82-2.08h1.34A2,2,0,0,1,258.4,62.23Z" transform="translate(-143.92 -2.93)"/><path class="cls-1" d="M259.2,87.14V60.26h2.14V87.14Z" transform="translate(-143.92 -2.93)"/><path class="cls-1" d="M266.06,72.48h.2a.94.94,0,0,1,.87,1V85.18a2,2,0,0,1-1.82,2.07H264a2,2,0,0,1-1.82-2.07V62.11h0a1.94,1.94,0,0,1,1.81-2h1.35a1.94,1.94,0,0,1,1.81,2h0v9.64H265v-9h-.71v22H265V74.92h-.35V72.48Z" transform="translate(-143.92 -2.93)"/><path class="cls-1" d="M272.86,62.34v24.8h-2.15V62.82h-.65V87.14h-2.14V60.26H271A2,2,0,0,1,272.86,62.34Z" transform="translate(-143.92 -2.93)"/><path class="cls-1" d="M278.59,62.22V74.09a.93.93,0,0,1-.87,1h-1.33a.7.7,0,0,0-.65.74V84.7h.7V75.81h2.15v9.37a2,2,0,0,1-1.82,2.07h-1.35a2,2,0,0,1-1.82-2.07v-23a2,2,0,0,1,1.82-2.07h1.35A2,2,0,0,1,278.59,62.22Zm-2.15.48h-.7v9.94h.7Z" transform="translate(-143.92 -2.93)"/><path class="cls-1" d="M284.37,62.34V73.08a2.28,2.28,0,0,1-.14.8,2.36,2.36,0,0,1,.14.8V87.14h-2.15v-12h-.7v12h-2.14V60.26h3.17A2,2,0,0,1,284.37,62.34Zm-2.15.48h-.7V72.6h.7Z" transform="translate(-143.92 -2.93)"/></svg>