<svg id="Layer_1" data-name="Layer 1" xmlns="http://www.w3.org/2000/svg" viewBox="0 0 433.32 132.61"><defs><style>.cls-1{fill:none;stroke:#000;stroke-miterlimit:10;stroke-width:5px;}.cls-2{font-size:15.52px;font-family:GrowthRegular, Growth;}</style></defs><text x="-60.93" y="-46.32"/><path d="M95.07,82.34v27.87l-8.61-.1-.23-26H83.54V171H74.7V74.92H87.55A7.47,7.47,0,0,1,95.07,82.34Z" transform="translate(-60.93 -46.32)"/><path d="M107.36,114.08v49.5A7.46,7.46,0,0,1,99.85,171H94.29a7.46,7.46,0,0,1-7.51-7.42v-49.5l8.84.22v47.57h2.9V114.3Z" transform="translate(-60.93 -46.32)"/><path d="M126.86,102v8.74H97.07V76.36l8.84-.43V102Z" transform="translate(-60.93 -46.32)"/><path d="M117.94,122.82v23.5h2.7v8.73h-2.7v16.36H109.1V114.08h17.76v8.74Z" transform="translate(-60.93 -46.32)"/><path d="M149.66,82.41v88.67h-8.84V127.6h-2.91v43.48h-8.84V82.41A7.47,7.47,0,0,1,136.59,75h5.55A7.47,7.47,0,0,1,149.66,82.41Zm-8.84,1.72h-2.91v34.74h2.91Z" transform="translate(-60.93 -46.32)"/><path d="M173.38,82V93.32h-8.84v-9.6h-2.9v78.62h2.9V135.5l8.84.21v28.35a7.46,7.46,0,0,1-7.52,7.42h-5.55a7.47,7.47,0,0,1-7.52-7.42V82a7.47,7.47,0,0,1,7.52-7.42h5.55A7.46,7.46,0,0,1,173.38,82Z" transform="translate(-60.93 -46.32)"/><path d="M173.38,100.06v14.5c0,.67-.8,1.21-1.79,1.21h-2.74c-.74,0-1.34.41-1.34.91v10.84H169V116.66h4.42v11.45c0,1.4-1.68,2.54-3.76,2.54h-2.78c-2.07,0-3.75-1.14-3.75-2.54V100.06c0-1.4,1.68-2.54,3.75-2.54h2.78C171.7,97.52,173.38,98.66,173.38,100.06Zm-4.42.58h-1.45v12.14H169Z" transform="translate(-60.93 -46.32)"/><rect class="cls-1" x="2.5" y="23.82" width="123.43" height="106.29"/><text class="cls-2" transform="translate(46.43 55.18) scale(1.06 1)">DESIGNER</text></svg>